<svg width="382" height="65" viewBox="0 0 382 65" fill="none" xmlns="http://www.w3.org/2000/svg">
<path fillRule="evenodd" clipRule="evenodd" d="M140.297 9.53454C130.038 9.53454 121.481 16.7961 119.527 26.444L119.527 9.53454L98.2745 30.6473L77.0794 9.53454L77.0794 26.444C75.1256 16.7961 66.5627 9.53454 56.3035 9.53454C46.0446 9.53454 37.4881 16.7961 35.5343 26.4376C34.7733 22.7012 33.026 19.3232 30.5757 16.5913C26.6939 12.26 21.0517 9.53455 14.7648 9.53455L0.714355 9.53455L0.714357 51.76L14.7648 51.76C21.0517 51.76 26.6939 49.0345 30.5757 44.7033C33.026 41.9651 34.7733 38.5869 35.5343 34.8506C37.4881 44.4986 46.0446 51.7537 56.3035 51.7537C66.5627 51.7537 75.1192 44.4921 77.073 34.8443L77.073 51.7537L84.0949 51.7537L84.0949 26.5079L98.2614 40.6215L112.37 26.5079L112.37 51.76L119.514 51.76L119.514 34.8506C121.468 44.4986 130.025 51.76 140.284 51.76C151.987 51.76 161.479 42.3106 161.479 30.6473C161.479 18.9841 152 9.53454 140.297 9.53454ZM140.297 44.7352C132.488 44.7352 126.156 38.4271 126.156 30.6473C126.156 22.8676 132.488 16.5593 140.297 16.5593C148.106 16.5593 154.437 22.8676 154.437 30.6473C154.437 38.4271 148.106 44.7352 140.297 44.7352ZM56.3035 44.7352C48.4949 44.7352 42.1628 38.4271 42.1628 30.6473C42.1628 22.8676 48.4949 16.5593 56.3035 16.5593C64.1124 16.5593 70.4443 22.8676 70.4443 30.6473C70.4443 38.4271 64.1124 44.7352 56.3035 44.7352ZM7.73636 44.7033L7.73636 16.5913L15.6869 16.5913C23.0635 17.0648 28.9055 23.1747 28.9055 30.6473C28.9055 38.1199 23.0635 44.2299 15.6869 44.7033L7.73636 44.7033Z" fill="url(#paint0_linear_19_255)"/>
<path d="M198.609 9.53454L218.462 51.7793L210.576 51.7793L206.868 43.8908L194.275 43.8908L197.609 36.8021L203.535 36.8021L198.609 26.3096L186.641 51.7793L178.755 51.7793L198.609 9.53454Z" fill="url(#paint1_linear_19_255)"/>
<path d="M230.714 9.53454L230.714 51.7793L223.57 51.7793L223.57 9.53454L230.714 9.53454Z" fill="url(#paint2_linear_19_255)"/>
<path d="M280 33.7143H269.714V44H266.286V33.7143H256V30.2857H266.286V20H269.714V30.2857H280V33.7143Z" fill="#FAFAFA"/>
<path d="M323.155 30.2788C323.155 31.1445 323.248 31.8464 323.411 32.3612C323.598 32.8759 323.831 33.4375 324.156 34.0458C324.273 34.233 324.319 34.4202 324.319 34.584C324.319 34.818 324.18 35.0519 323.877 35.2859L322.41 36.2686C322.201 36.409 321.991 36.4792 321.805 36.4792C321.572 36.4792 321.339 36.3622 321.107 36.1516C320.781 35.8007 320.501 35.4263 320.268 35.0519C320.036 34.6542 319.803 34.2096 319.547 33.6715C317.731 35.8241 315.449 36.9004 312.702 36.9004C310.746 36.9004 309.187 36.3388 308.046 35.2157C306.905 34.0926 306.323 32.5952 306.323 30.7233C306.323 28.7345 307.021 27.1201 308.442 25.9034C309.862 24.6867 311.748 24.0784 314.146 24.0784C314.937 24.0784 315.752 24.1486 316.613 24.2655C317.475 24.3825 318.359 24.5697 319.291 24.7803V23.0723C319.291 21.294 318.918 20.0539 318.196 19.3286C317.451 18.6033 316.194 18.2523 314.402 18.2523C313.587 18.2523 312.749 18.3459 311.887 18.5565C311.026 18.7671 310.188 19.0244 309.373 19.352C309 19.5158 308.721 19.6094 308.558 19.6562C308.395 19.703 308.279 19.7264 308.185 19.7264C307.86 19.7264 307.697 19.4924 307.697 19.001V17.8545C307.697 17.4802 307.743 17.1994 307.86 17.0356C307.976 16.8718 308.185 16.708 308.511 16.5443C309.326 16.1231 310.304 15.7721 311.445 15.4914C312.586 15.1872 313.796 15.0468 315.077 15.0468C317.847 15.0468 319.873 15.6785 321.176 16.942C322.457 18.2055 323.109 20.1241 323.109 22.6979V30.2788H323.155ZM313.703 33.8353C314.471 33.8353 315.263 33.6949 316.101 33.4141C316.939 33.1333 317.684 32.6186 318.313 31.9166C318.685 31.4721 318.965 30.9807 319.104 30.4192C319.244 29.8576 319.337 29.1791 319.337 28.3836V27.4009C318.662 27.2371 317.94 27.0967 317.195 27.0031C316.45 26.9095 315.729 26.8627 315.007 26.8627C313.447 26.8627 312.306 27.1669 311.538 27.7986C310.77 28.4304 310.397 29.3195 310.397 30.4894C310.397 31.5891 310.677 32.408 311.259 32.9695C311.817 33.5545 312.632 33.8353 313.703 33.8353ZM332.398 36.3622C331.979 36.3622 331.7 36.292 331.513 36.1282C331.327 35.9879 331.164 35.6603 331.024 35.2157L325.553 17.1292C325.414 16.6612 325.344 16.3571 325.344 16.1933C325.344 15.8189 325.53 15.6083 325.903 15.6083H328.184C328.626 15.6083 328.929 15.6785 329.092 15.8423C329.278 15.9827 329.418 16.3103 329.558 16.7548L333.469 32.2442L337.101 16.7548C337.217 16.2869 337.357 15.9827 337.543 15.8423C337.729 15.7019 338.055 15.6083 338.474 15.6083H340.337C340.779 15.6083 341.082 15.6785 341.268 15.8423C341.454 15.9827 341.617 16.3103 341.711 16.7548L345.389 32.4314L349.417 16.7548C349.556 16.2869 349.719 15.9827 349.882 15.8423C350.068 15.7019 350.371 15.6083 350.79 15.6083H352.955C353.328 15.6083 353.537 15.7955 353.537 16.1933C353.537 16.3103 353.514 16.4273 353.491 16.5677C353.468 16.708 353.421 16.8952 353.328 17.1526L347.717 35.2391C347.577 35.7071 347.414 36.0113 347.228 36.1516C347.042 36.292 346.739 36.3856 346.343 36.3856H344.341C343.899 36.3856 343.596 36.3154 343.41 36.1516C343.224 35.9879 343.061 35.6837 342.968 35.2157L339.359 20.1241L335.774 35.1923C335.657 35.6603 335.518 35.9645 335.331 36.1282C335.145 36.292 334.819 36.3622 334.4 36.3622H332.398ZM362.314 36.994C361.104 36.994 359.893 36.8536 358.729 36.5728C357.565 36.292 356.657 35.9879 356.052 35.6369C355.679 35.4263 355.423 35.1923 355.33 34.9818C355.237 34.7712 355.19 34.5372 355.19 34.3266V33.1333C355.19 32.642 355.377 32.408 355.726 32.408C355.866 32.408 356.005 32.4314 356.145 32.4782C356.285 32.525 356.494 32.6186 356.727 32.7122C357.518 33.0631 358.38 33.3439 359.288 33.5311C360.219 33.7183 361.127 33.8119 362.058 33.8119C363.525 33.8119 364.666 33.5545 365.457 33.0397C366.249 32.525 366.668 31.7762 366.668 30.8169C366.668 30.1618 366.459 29.6236 366.039 29.1791C365.62 28.7345 364.829 28.3368 363.688 27.9624L360.312 26.9095C358.613 26.3713 357.356 25.5758 356.587 24.5229C355.819 23.4934 355.423 22.3469 355.423 21.1302C355.423 20.1475 355.633 19.2818 356.052 18.5331C356.471 17.7843 357.03 17.1292 357.728 16.6145C358.426 16.0763 359.218 15.6785 360.149 15.3978C361.081 15.117 362.058 15 363.083 15C363.595 15 364.13 15.0234 364.643 15.0936C365.178 15.1638 365.667 15.2574 366.156 15.351C366.621 15.468 367.064 15.5849 367.483 15.7253C367.902 15.8657 368.228 16.0061 368.461 16.1465C368.787 16.3337 369.019 16.5209 369.159 16.7314C369.299 16.9186 369.369 17.176 369.369 17.5036V18.6033C369.369 19.0946 369.182 19.352 368.833 19.352C368.647 19.352 368.344 19.2584 367.949 19.0712C366.621 18.4629 365.131 18.1587 363.479 18.1587C362.151 18.1587 361.104 18.3693 360.382 18.8138C359.66 19.2584 359.288 19.9369 359.288 20.8963C359.288 21.5514 359.521 22.1129 359.986 22.5575C360.452 23.0021 361.313 23.4466 362.547 23.8444L365.853 24.8973C367.529 25.4354 368.74 26.1842 369.462 27.1435C370.184 28.1028 370.533 29.2025 370.533 30.4192C370.533 31.4253 370.323 32.3378 369.927 33.1333C369.508 33.9288 368.95 34.6308 368.228 35.1923C367.506 35.7773 366.645 36.1984 365.644 36.5026C364.596 36.8302 363.502 36.994 362.314 36.994Z" fill="white"/>
<path fillRule="evenodd" clipRule="evenodd" d="M366.714 48.3652C359.055 54.0509 347.926 57.0692 338.358 57.0692C324.948 57.0692 312.865 52.0855 303.739 43.8026C303.017 43.1475 303.669 42.2584 304.53 42.7731C314.401 48.529 326.577 52.0153 339.173 52.0153C347.67 52.0153 357.006 50.237 365.597 46.587C366.877 46.002 367.972 47.4293 366.714 48.3652Z" fill="#FF9900"/>
<path fillRule="evenodd" clipRule="evenodd" d="M369.904 44.7151C368.926 43.4517 363.432 44.1068 360.941 44.411C360.196 44.5046 360.08 43.8494 360.755 43.3581C365.132 40.2696 372.325 41.1587 373.164 42.1882C374.002 43.2411 372.931 50.471 368.833 53.9339C368.205 54.472 367.599 54.1913 367.879 53.4893C368.81 51.1729 370.882 45.9552 369.904 44.7151Z" fill="#FF9900"/>
<defs>
<linearGradient id="paint0_linear_19_255" x1="-82.3432" y1="-3.79955" x2="235.495" y2="4.7872" gradientUnits="userSpaceOnUse">
<stop stopColor="#31689B"/>
<stop offset="0.91217" stopColor="#A62A92"/>
</linearGradient>
<linearGradient id="paint1_linear_19_255" x1="-82.3432" y1="-3.79955" x2="235.495" y2="4.7872" gradientUnits="userSpaceOnUse">
<stop stopColor="#31689B"/>
<stop offset="0.91217" stopColor="#A62A92"/>
</linearGradient>
<linearGradient id="paint2_linear_19_255" x1="-82.3432" y1="-3.79955" x2="235.495" y2="4.7872" gradientUnits="userSpaceOnUse">
<stop stopColor="#31689B"/>
<stop offset="0.91217" stopColor="#A62A92"/>
</linearGradient>
</defs>
</svg>