<svg width="382" height="65" viewBox="0 0 382 65" fill="none" xmlns="http://www.w3.org/2000/svg">
<path fillRule="evenodd" clipRule="evenodd" d="M140.297 9.53454C130.038 9.53454 121.481 16.7961 119.527 26.444L119.527 9.53454L98.2745 30.6473L77.0794 9.53454L77.0794 26.444C75.1256 16.7961 66.5627 9.53454 56.3035 9.53454C46.0446 9.53454 37.4881 16.7961 35.5343 26.4376C34.7733 22.7012 33.026 19.3232 30.5757 16.5913C26.6939 12.26 21.0517 9.53455 14.7648 9.53455L0.714355 9.53455L0.714357 51.76L14.7648 51.76C21.0517 51.76 26.6939 49.0345 30.5757 44.7033C33.026 41.9651 34.7733 38.5869 35.5343 34.8506C37.4881 44.4986 46.0446 51.7537 56.3035 51.7537C66.5627 51.7537 75.1192 44.4921 77.073 34.8443L77.073 51.7537L84.0949 51.7537L84.0949 26.5079L98.2614 40.6215L112.37 26.5079L112.37 51.76L119.514 51.76L119.514 34.8506C121.468 44.4986 130.025 51.76 140.284 51.76C151.987 51.76 161.479 42.3106 161.479 30.6473C161.479 18.9841 152 9.53454 140.297 9.53454ZM140.297 44.7352C132.488 44.7352 126.156 38.4271 126.156 30.6473C126.156 22.8676 132.488 16.5593 140.297 16.5593C148.106 16.5593 154.437 22.8676 154.437 30.6473C154.437 38.4271 148.106 44.7352 140.297 44.7352ZM56.3035 44.7352C48.4949 44.7352 42.1628 38.4271 42.1628 30.6473C42.1628 22.8676 48.4949 16.5593 56.3035 16.5593C64.1124 16.5593 70.4443 22.8676 70.4443 30.6473C70.4443 38.4271 64.1124 44.7352 56.3035 44.7352ZM7.73636 44.7033L7.73636 16.5913L15.6869 16.5913C23.0635 17.0648 28.9055 23.1747 28.9055 30.6473C28.9055 38.1199 23.0635 44.2299 15.6869 44.7033L7.73636 44.7033Z" fill="url(#paint0_linear_19_255)"/>
<path d="M198.609 9.53454L218.462 51.7793L210.576 51.7793L206.868 43.8908L194.275 43.8908L197.609 36.8021L203.535 36.8021L198.609 26.3096L186.641 51.7793L178.755 51.7793L198.609 9.53454Z" fill="url(#paint1_linear_19_255)"/>
<path d="M230.714 9.53454L230.714 51.7793L223.57 51.7793L223.57 9.53454L230.714 9.53454Z" fill="url(#paint2_linear_19_255)"/>
<path d="M280 33.7143H269.714V44H266.286V33.7143H256V30.2857H266.286V20H269.714V30.2857H280V33.7143Z" fill="#FAFAFA"/>
<defs>
<linearGradient id="paint0_linear_19_255" x1="-82.3432" y1="-3.79955" x2="235.495" y2="4.7872" gradientUnits="userSpaceOnUse">
<stop stopColor="#31689B"/>
<stop offset="0.91217" stopColor="#A62A92"/>
</linearGradient>
<linearGradient id="paint1_linear_19_255" x1="-82.3432" y1="-3.79955" x2="235.495" y2="4.7872" gradientUnits="userSpaceOnUse">
<stop stopColor="#31689B"/>
<stop offset="0.91217" stopColor="#A62A92"/>
</linearGradient>
<linearGradient id="paint2_linear_19_255" x1="-82.3432" y1="-3.79955" x2="235.495" y2="4.7872" gradientUnits="userSpaceOnUse">
<stop stopColor="#31689B"/>
<stop offset="0.91217" stopColor="#A62A92"/>
</linearGradient>
</defs>
</svg>
